<?xml version="1.0" standalone="no"?>
<!DOCTYPE svg PUBLIC "-//W3C//DTD SVG 20010904//EN"
 "http://www.w3.org/TR/2001/REC-SVG-20010904/DTD/svg10.dtd">
<svg version="1.0" xmlns="http://www.w3.org/2000/svg"
 width="256.000000pt" height="256.000000pt" viewBox="0 0 256.000000 256.000000"
 preserveAspectRatio="xMidYMid meet">
<metadata>
Created by potrace 1.11, written by Peter Selinger 2001-2013
</metadata>
<g transform="translate(0.000000,256.000000) scale(0.100000,-0.100000)"
fill="#000000" stroke="none">
<path d="M1159 2556 c-2 -2 -29 -7 -59 -10 -288 -34 -609 -213 -799 -444 -60
-73 -121 -159 -121 -171 0 -5 -3 -11 -8 -13 -13 -6 -96 -193 -118 -268 -44
-148 -62 -379 -43 -530 75 -579 526 -1031 1104 -1109 100 -13 327 -6 410 14
39 9 79 18 89 20 85 19 223 78 331 143 283 168 509 480 580 800 25 115 26 124
30 257 12 401 -161 781 -470 1028 -86 69 -87 70 -130 95 -147 84 -288 139
-433 169 -66 13 -353 28 -363 19z m126 -499 c2 -7 6 -28 9 -47 3 -19 10 -60
16 -90 6 -30 13 -61 14 -68 2 -9 33 -13 112 -15 97 -3 118 -6 167 -31 66 -32
93 -65 118 -146 30 -97 13 -168 -58 -236 l-35 -34 26 0 c14 0 55 -10 91 -21
48 -16 75 -32 101 -61 21 -23 33 -46 30 -54 -3 -8 -2 -12 3 -9 15 9 34 -105
29 -177 -11 -146 -110 -234 -336 -299 -48 -14 -47 -5 -17 -147 22 -107 22
-108 -28 -115 -24 -3 -50 -9 -59 -12 -17 -7 -23 4 -33 62 -10 62 -33 164 -37
168 -2 3 -33 0 -67 -6 l-63 -11 5 -37 c3 -20 12 -69 21 -109 9 -40 16 -77 16
-82 0 -12 -28 -21 -82 -27 -36 -4 -48 -2 -49 8 -1 16 -3 27 -24 140 l-17 86
-36 -8 c-21 -4 -85 -17 -144 -27 l-108 -19 -1 41 c0 22 -1 56 -2 74 -2 41 5
48 64 56 79 11 94 36 77 125 -5 25 -11 62 -14 81 -3 19 -7 42 -9 50 -2 8 -7
29 -9 45 -3 17 -19 102 -35 190 -16 88 -32 179 -36 202 -4 23 -17 54 -32 69
-23 25 -28 26 -89 20 -35 -4 -70 -9 -77 -12 -10 -4 -17 11 -26 52 -6 32 -11
63 -11 69 0 8 55 23 146 40 l145 28 -5 26 c-3 14 -8 37 -10 51 -3 14 -11 55
-19 93 -8 37 -14 67 -13 68 3 2 34 7 78 14 52 8 53 7 62 -50 13 -89 27 -170
30 -173 4 -4 125 24 131 30 2 2 -5 53 -15 113 -11 59 -20 110 -20 111 0 5 59
19 91 21 16 1 32 -3 34 -10z"/>
<path d="M1218 1664 c-3 -3 -87 -16 -105 -17 -16 0 -17 9 8 -127 11 -63 23
-132 26 -152 3 -21 9 -38 14 -38 27 0 187 43 221 60 22 11 45 17 51 13 6 -3 7
-1 4 4 -4 6 2 18 13 28 30 27 42 76 31 125 -18 80 -77 113 -196 109 -36 -1
-66 -3 -67 -5z"/>
<path d="M1349 1236 c-2 -2 -27 -7 -55 -11 -95 -11 -109 -18 -108 -51 0 -31
10 -91 18 -115 3 -8 7 -31 10 -51 7 -48 25 -129 31 -139 9 -14 198 35 283 73
100 44 137 130 93 216 -28 55 -74 75 -182 79 -47 2 -88 1 -90 -1z"/>
</g>
</svg>
